<svg width="32" height="32" viewBox="0 0 32 32" fill="none" xmlns="http://www.w3.org/2000/svg">
<path d="M5 16C4.99972 14.0689 5.50775 12.1718 6.4731 10.4994C7.4384 8.82695 8.827 7.43805 10.4993 6.4724C12.1716 5.50675 14.0686 4.99834 15.9996 4.99826C17.9307 4.99819 19.8277 5.50645 21.5 6.472C21.7296 6.6025 22.0015 6.6369 22.2563 6.56775C22.5112 6.49855 22.7283 6.33135 22.8603 6.10265C22.9924 5.874 23.0286 5.60235 22.9611 5.34705C22.8936 5.09175 22.7279 4.87353 22.5 4.73998C20.0218 3.30914 17.1406 2.73602 14.3034 3.1095C11.4662 3.48298 8.8315 4.78218 6.80795 6.80565C4.78435 8.82905 3.48498 11.4636 3.11132 14.3008C2.73766 17.138 3.3106 20.0192 4.74127 22.4976C6.17195 24.9759 8.3804 26.913 11.0242 28.0083C13.6679 29.1036 16.5992 29.296 19.3635 28.5556C22.1277 27.8153 24.5704 26.1835 26.3127 23.9133C28.0551 21.6432 28.9997 18.8616 29 16C29 15.7347 28.8947 15.4804 28.7072 15.2928C28.5196 15.1053 28.2653 15 28 15C27.7348 15 27.4805 15.1053 27.2929 15.2928C27.1054 15.4804 27 15.7347 27 16C27 18.9173 25.8411 21.7152 23.7782 23.7781C21.7153 25.841 18.9174 27 16 27C13.0827 27 10.2848 25.841 8.22185 23.7781C6.15895 21.7152 5 18.9173 5 16Z" fill="#49B55A"/>
<path d="M30.7083 6.70806C30.8012 6.61506 30.875 6.50471 30.9253 6.38321C30.9756 6.26171 31.0015 6.13151 31.0015 6.00006C31.0015 5.86856 30.9756 5.73836 30.9253 5.61686C30.875 5.49541 30.8012 5.38501 30.7083 5.29206C30.6153 5.19906 30.5049 5.12531 30.3834 5.07501C30.262 5.02466 30.1318 4.99878 30.0003 4.99878C29.8688 4.99878 29.7386 5.02466 29.6171 5.07501C29.4956 5.12531 29.3852 5.19906 29.2923 5.29206L16.0003 18.5861L10.7083 13.2921C10.6153 13.1991 10.5049 13.1253 10.3834 13.075C10.262 13.0247 10.1318 12.9988 10.0003 12.9988C9.86877 12.9988 9.73857 13.0247 9.61712 13.075C9.49562 13.1253 9.38522 13.1991 9.29227 13.2921C9.19927 13.385 9.12552 13.4954 9.07522 13.6169C9.02492 13.7384 8.99902 13.8686 8.99902 14.0001C8.99902 14.1315 9.02492 14.2617 9.07522 14.3832C9.12552 14.5047 9.19927 14.6151 9.29227 14.7081L15.2923 20.7081C15.3852 20.8012 15.4955 20.8751 15.617 20.9255C15.7385 20.9759 15.8687 21.0018 16.0003 21.0018C16.1318 21.0018 16.262 20.9759 16.3835 20.9255C16.505 20.8751 16.6154 20.8012 16.7083 20.7081L30.7083 6.70806Z" fill="#49B55A"/>
</svg>
